<svg id="logo" xmlns="http://www.w3.org/2000/svg" width="143" height="77" viewBox="0 0 143 77">
  <text id="SOLi" transform="translate(0 64)" fill="#fff" font-size="64" font-family="Athena-Regular, Athena" letter-spacing="0.01em"><tspan x="0" y="0">SOLi</tspan></text>
  <path id="Icon_awesome-leaf" data-name="Icon awesome-leaf" d="M20.866.37A.594.594,0,0,0,19.785.324a6.55,6.55,0,0,1-5.726,3.342H11A7.336,7.336,0,0,0,3.669,11a7.553,7.553,0,0,0,.057.783A18.275,18.275,0,0,1,14.67,8.556a.611.611,0,0,1,0,1.222c-9.6,0-13.675,5.886-14.576,8.1a1.224,1.224,0,0,0,2.265.928,10.049,10.049,0,0,1,2.746-3.461,7.318,7.318,0,0,0,6.681,2.949c6-.435,10.218-5.814,10.218-12.4A13.89,13.89,0,0,0,20.866.37Z" transform="translate(120.996 11.001)" fill="#fff"/>
</svg>
