<svg id="logo" xmlns="http://www.w3.org/2000/svg" width="139.16" height="53.384" viewBox="0 0 139.16 53.384">
  <path id="Path_44" data-name="Path 44" d="M18.24.384a17.906,17.906,0,0,0,7.9-1.632A12.514,12.514,0,0,0,31.328-5.7a11.293,11.293,0,0,0,1.824-6.272,8.946,8.946,0,0,0-2.976-6.848,35.189,35.189,0,0,0-9.184-5.568l-1.92-.9q-4.032-1.856-6.048-2.944a10.569,10.569,0,0,1-3.2-2.528A5.222,5.222,0,0,1,8.64-34.176a6,6,0,0,1,2.56-5.248,12.106,12.106,0,0,1,7.04-1.792,16.11,16.11,0,0,1,7.488,1.888,11.4,11.4,0,0,1,5.248,5.216l.832-1.024a12.01,12.01,0,0,0-5.5-5.376A17.6,17.6,0,0,0,18.112-42.5a18.1,18.1,0,0,0-7.1,1.376,12.2,12.2,0,0,0-5.216,4.032A10.456,10.456,0,0,0,3.84-30.72,8.607,8.607,0,0,0,5.28-25.7a12.571,12.571,0,0,0,4.16,3.648,73.165,73.165,0,0,0,7.52,3.616,30.381,30.381,0,0,1,8.1,4.576A6.731,6.731,0,0,1,27.648-8.7a6.994,6.994,0,0,1-2.528,5.76A10.621,10.621,0,0,1,18.24-.9,19.137,19.137,0,0,1,10.3-2.656,11.3,11.3,0,0,1,4.672-7.744L3.9-6.72A12.014,12.014,0,0,0,9.856-1.44,20.415,20.415,0,0,0,18.24.384ZM62.08-42.5a20.472,20.472,0,0,1,10.656,2.912,21.74,21.74,0,0,1,7.776,7.84,20.814,20.814,0,0,1,2.88,10.688,20.814,20.814,0,0,1-2.88,10.688,21.74,21.74,0,0,1-7.776,7.84A20.472,20.472,0,0,1,62.08.384,20.645,20.645,0,0,1,51.424-2.5,21.488,21.488,0,0,1,43.648-10.3a20.932,20.932,0,0,1-2.88-10.752,20.932,20.932,0,0,1,2.88-10.752,21.488,21.488,0,0,1,7.776-7.808A20.645,20.645,0,0,1,62.08-42.5ZM69.248-3.264a16.139,16.139,0,0,0,4.864-6.3Q75.84-13.44,75.84-21.056T74.112-32.544a16.139,16.139,0,0,0-4.864-6.3,11.617,11.617,0,0,0-7.168-2.3,11.444,11.444,0,0,0-7.168,2.3,15.637,15.637,0,0,0-4.9,6.3q-1.7,3.872-1.7,11.488t1.7,11.488a15.637,15.637,0,0,0,4.9,6.3A11.407,11.407,0,0,0,62.08-.9,11.58,11.58,0,0,0,69.248-3.264ZM99.712-1.28H119.1V0H92.48V-42.112h7.232Zm36.864-29.44h-7.232V0h7.232Zm-7.232-8.128A3.449,3.449,0,0,0,130.4-36.32a3.524,3.524,0,0,0,2.592,1.056,3.524,3.524,0,0,0,2.592-1.056,3.449,3.449,0,0,0,1.056-2.528,3.5,3.5,0,0,0-1.088-2.56,3.5,3.5,0,0,0-2.56-1.088,3.5,3.5,0,0,0-2.56,1.088A3.5,3.5,0,0,0,129.344-38.848Z" transform="translate(-3.84 53)" fill="#fff"/>
  <path id="Icon_awesome-leaf" data-name="Icon awesome-leaf" d="M20.866.37A.594.594,0,0,0,19.785.324a6.55,6.55,0,0,1-5.726,3.342H11A7.336,7.336,0,0,0,3.669,11a7.553,7.553,0,0,0,.057.783A18.275,18.275,0,0,1,14.67,8.556a.611.611,0,0,1,0,1.222c-9.6,0-13.675,5.886-14.576,8.1a1.224,1.224,0,0,0,2.265.928,10.049,10.049,0,0,1,2.746-3.461,7.318,7.318,0,0,0,6.681,2.949c6-.435,10.218-5.814,10.218-12.4A13.89,13.89,0,0,0,20.866.37Z" transform="translate(117.156 0.002)" fill="#fff"/>
</svg>
