<svg xmlns="http://www.w3.org/2000/svg" xmlns:xlink="http://www.w3.org/1999/xlink" width="375" height="812" viewBox="0 0 375 812">
  <defs>
    <clipPath id="clip-Browse_2">
      <rect width="375" height="812"/>
    </clipPath>
  </defs>
  <g id="Browse_2" data-name="Browse – 2" clip-path="url(#clip-Browse_2)">
    <rect width="375" height="812" fill="#fff"/>
    <g id="Group_9" data-name="Group 9" transform="translate(0 616)">
      <g id="Rectangle_67" data-name="Rectangle 67" transform="translate(18 113)" fill="#fff" stroke="#707070" stroke-width="1">
        <rect width="338.5" height="167.5" stroke="none"/>
        <rect x="0.5" y="0.5" width="337.5" height="166.5" fill="none"/>
      </g>
      <line id="Line_36" data-name="Line 36" y2="167.5" transform="translate(187.25 113.5)" fill="none" stroke="#707070" stroke-width="1"/>
      <line id="Line_37" data-name="Line 37" x2="170" transform="translate(187 197.249)" fill="none" stroke="#707070" stroke-width="1"/>
      <line id="Line_38" data-name="Line 38" y2="167.5" transform="translate(272.125 113.5)" fill="none" stroke="#707070" stroke-width="1"/>
      <text id="Category" transform="translate(30 249.59)" fill="#253528" font-size="24" font-family="Garamond" letter-spacing="0.01em"><tspan x="0" y="0">Category</tspan></text>
      <path id="Icon_awesome-arrow-right" data-name="Icon awesome-arrow-right" d="M13.395,4.7l1.561-1.561a1.681,1.681,0,0,1,2.384,0L31.008,16.8a1.681,1.681,0,0,1,0,2.384L17.339,32.857a1.681,1.681,0,0,1-2.384,0L13.395,31.3a1.689,1.689,0,0,1,.028-2.412L21.9,20.813H1.688A1.683,1.683,0,0,1,0,19.125v-2.25a1.683,1.683,0,0,1,1.688-1.687H21.9L13.423,7.116A1.677,1.677,0,0,1,13.395,4.7Z" transform="translate(297.5 221.946)" fill="#646464"/>
    </g>
    <text id="Explore_Plants" data-name="Explore Plants" transform="translate(18 72)" fill="#253528" font-size="36" font-family="Athena-Regular, Athena" letter-spacing="0.01em"><tspan x="0" y="0">Explore Plants</tspan></text>
    <g id="Icon_feather-plus-circle" data-name="Icon feather-plus-circle" transform="translate(311 40)">
      <path id="Path_29" data-name="Path 29" d="M33,18A15,15,0,1,1,18,3,15,15,0,0,1,33,18Z" fill="none" stroke="#646464" stroke-linecap="round" stroke-linejoin="round" stroke-width="3"/>
      <path id="Path_30" data-name="Path 30" d="M18,12V24" fill="none" stroke="#646464" stroke-linecap="round" stroke-linejoin="round" stroke-width="3"/>
      <path id="Path_31" data-name="Path 31" d="M12,18H24" fill="none" stroke="#646464" stroke-linecap="round" stroke-linejoin="round" stroke-width="3"/>
    </g>
    <g id="Group_12" data-name="Group 12" transform="translate(0 10)">
      <g id="Rectangle_67-2" data-name="Rectangle 67" transform="translate(18 143)" fill="#fff" stroke="#707070" stroke-width="1">
        <rect width="338.5" height="167.5" stroke="none"/>
        <rect x="0.5" y="0.5" width="337.5" height="166.5" fill="none"/>
      </g>
      <line id="Line_36-2" data-name="Line 36" y2="167.5" transform="translate(187.25 143.5)" fill="none" stroke="#707070" stroke-width="1"/>
      <line id="Line_37-2" data-name="Line 37" x2="170" transform="translate(187 227.249)" fill="none" stroke="#707070" stroke-width="1"/>
      <line id="Line_38-2" data-name="Line 38" y2="167.5" transform="translate(272.125 143.5)" fill="none" stroke="#707070" stroke-width="1"/>
      <text id="Category-2" data-name="Category" transform="translate(30 279.59)" fill="#253528" font-size="24" font-family="Garamond" letter-spacing="0.01em"><tspan x="0" y="0">Category</tspan></text>
      <path id="Icon_awesome-arrow-right-2" data-name="Icon awesome-arrow-right" d="M13.395,4.7l1.561-1.561a1.681,1.681,0,0,1,2.384,0L31.008,16.8a1.681,1.681,0,0,1,0,2.384L17.339,32.857a1.681,1.681,0,0,1-2.384,0L13.395,31.3a1.689,1.689,0,0,1,.028-2.412L21.9,20.813H1.688A1.683,1.683,0,0,1,0,19.125v-2.25a1.683,1.683,0,0,1,1.688-1.687H21.9L13.423,7.116A1.677,1.677,0,0,1,13.395,4.7Z" transform="translate(297.5 251.946)" fill="#646464"/>
    </g>
    <g id="Group_7" data-name="Group 7" transform="translate(0 232)">
      <g id="Rectangle_67-3" data-name="Rectangle 67" transform="translate(18 113)" fill="#fff" stroke="#707070" stroke-width="1">
        <rect width="338.5" height="167.5" stroke="none"/>
        <rect x="0.5" y="0.5" width="337.5" height="166.5" fill="none"/>
      </g>
      <line id="Line_36-3" data-name="Line 36" y2="167.5" transform="translate(187.25 113.5)" fill="none" stroke="#707070" stroke-width="1"/>
      <line id="Line_37-3" data-name="Line 37" x2="170" transform="translate(187 197.249)" fill="none" stroke="#707070" stroke-width="1"/>
      <line id="Line_38-3" data-name="Line 38" y2="167.5" transform="translate(272.125 113.5)" fill="none" stroke="#707070" stroke-width="1"/>
      <text id="Category-3" data-name="Category" transform="translate(30 249.59)" fill="#253528" font-size="24" font-family="Garamond" letter-spacing="0.01em"><tspan x="0" y="0">Category</tspan></text>
      <path id="Icon_awesome-arrow-right-3" data-name="Icon awesome-arrow-right" d="M13.395,4.7l1.561-1.561a1.681,1.681,0,0,1,2.384,0L31.008,16.8a1.681,1.681,0,0,1,0,2.384L17.339,32.857a1.681,1.681,0,0,1-2.384,0L13.395,31.3a1.689,1.689,0,0,1,.028-2.412L21.9,20.813H1.688A1.683,1.683,0,0,1,0,19.125v-2.25a1.683,1.683,0,0,1,1.688-1.687H21.9L13.423,7.116A1.677,1.677,0,0,1,13.395,4.7Z" transform="translate(297.5 221.946)" fill="#646464"/>
    </g>
    <g id="Group_8" data-name="Group 8" transform="translate(0 424)">
      <g id="Rectangle_67-4" data-name="Rectangle 67" transform="translate(18 113)" fill="#fff" stroke="#707070" stroke-width="1">
        <rect width="338.5" height="167.5" stroke="none"/>
        <rect x="0.5" y="0.5" width="337.5" height="166.5" fill="none"/>
      </g>
      <line id="Line_36-4" data-name="Line 36" y2="167.5" transform="translate(187.25 113.5)" fill="none" stroke="#707070" stroke-width="1"/>
      <line id="Line_37-4" data-name="Line 37" x2="170" transform="translate(187 197.249)" fill="none" stroke="#707070" stroke-width="1"/>
      <line id="Line_38-4" data-name="Line 38" y2="167.5" transform="translate(272.125 113.5)" fill="none" stroke="#707070" stroke-width="1"/>
      <text id="Category-4" data-name="Category" transform="translate(30 249.59)" fill="#253528" font-size="24" font-family="Garamond" letter-spacing="0.01em"><tspan x="0" y="0">Category</tspan></text>
      <path id="Icon_awesome-arrow-right-4" data-name="Icon awesome-arrow-right" d="M13.395,4.7l1.561-1.561a1.681,1.681,0,0,1,2.384,0L31.008,16.8a1.681,1.681,0,0,1,0,2.384L17.339,32.857a1.681,1.681,0,0,1-2.384,0L13.395,31.3a1.689,1.689,0,0,1,.028-2.412L21.9,20.813H1.688A1.683,1.683,0,0,1,0,19.125v-2.25a1.683,1.683,0,0,1,1.688-1.687H21.9L13.423,7.116A1.677,1.677,0,0,1,13.395,4.7Z" transform="translate(297.5 221.946)" fill="#646464"/>
    </g>
    <rect id="Rectangle_66" data-name="Rectangle 66" width="375" height="60" transform="translate(0 752)" fill="#fff"/>
    <g id="Icon_ionic-ios-folder-open" data-name="Icon ionic-ios-folder-open" transform="translate(169.748 764.5)">
      <path id="Path_27" data-name="Path 27" d="M31.5,8.367A1.551,1.551,0,0,0,29.9,6.75H16.235a.52.52,0,0,1-.429-.169L14.224,5l-.014-.014A1.528,1.528,0,0,0,12.994,4.5H6.237A1.673,1.673,0,0,0,4.5,6.117V11.25h27Z" fill="#646464"/>
      <path id="Path_28" data-name="Path 28" d="M4.5,13.219H3.916c-.9,0-1.779.359-1.652,1.709S3.916,29.742,3.916,29.742c.19,1.252.823,1.758,1.758,1.758H30.459c.893,0,1.477-.548,1.617-1.758,0,0,1.561-13,1.659-14.449s-.626-2.074-1.659-2.074H4.5Z" fill="#646464"/>
    </g>
    <path id="Icon_awesome-search" data-name="Icon awesome-search" d="M26.628,23.343l-5.257-5.257a1.265,1.265,0,0,0-.9-.369h-.859a10.963,10.963,0,1,0-1.9,1.9v.859a1.265,1.265,0,0,0,.369.9l5.257,5.257a1.26,1.26,0,0,0,1.788,0l1.492-1.492A1.271,1.271,0,0,0,26.628,23.343ZM10.968,17.717a6.749,6.749,0,1,1,6.749-6.749A6.745,6.745,0,0,1,10.968,17.717Z" transform="translate(98 769)" fill="#253528"/>
    <path id="Icon_open-person" data-name="Icon open-person" d="M13.5,0C9.788,0,6.75,3.78,6.75,8.438s3.038,8.438,6.75,8.438,6.75-3.78,6.75-8.437S17.213,0,13.5,0ZM6.446,16.875A6.757,6.757,0,0,0,0,23.625V27H27V23.625a6.733,6.733,0,0,0-6.446-6.75A9.479,9.479,0,0,1,13.5,20.25,9.479,9.479,0,0,1,6.446,16.875Z" transform="translate(324 769)" fill="#646464"/>
    <path id="Icon_awesome-compass" data-name="Icon awesome-compass" d="M12.269,12.831a1.742,1.742,0,1,0,2.463,0,1.741,1.741,0,0,0-2.463,0ZM13.5.563A13.5,13.5,0,1,0,27,14.063,13.5,13.5,0,0,0,13.5.563Zm6.866,8.059-3.591,7.858a1.739,1.739,0,0,1-.858.858L8.06,20.929A1.076,1.076,0,0,1,6.634,19.5l3.592-7.858a1.739,1.739,0,0,1,.858-.858L18.941,7.2A1.076,1.076,0,0,1,20.366,8.622Z" transform="translate(250 768.438)" fill="#646464"/>
    <path id="Icon_metro-notification" data-name="Icon metro-notification" d="M16.071,4.459a10.969,10.969,0,1,0,7.756,3.213A10.9,10.9,0,0,0,16.071,4.459Zm0-2.531a13.5,13.5,0,1,1-13.5,13.5,13.5,13.5,0,0,1,13.5-13.5ZM14.383,20.491h3.375v3.375H14.383Zm0-13.5h3.375V17.116H14.383Z" transform="translate(21.429 767.072)" fill="#646464"/>
    <g id="Group_10" data-name="Group 10" transform="translate(0 19)">
      <g id="Rectangle_72" data-name="Rectangle 72" transform="translate(18 81)" fill="#fff" stroke="#707070" stroke-width="1">
        <rect width="340" height="32" stroke="none"/>
        <rect x="0.5" y="0.5" width="339" height="31" fill="none"/>
      </g>
      <path id="Icon_awesome-search-2" data-name="Icon awesome-search" d="M21.7,19.024l-4.284-4.284a1.031,1.031,0,0,0-.731-.3h-.7a8.934,8.934,0,1,0-1.547,1.547v.7a1.031,1.031,0,0,0,.3.731L19.024,21.7a1.027,1.027,0,0,0,1.457,0L21.7,20.485A1.036,1.036,0,0,0,21.7,19.024ZM8.938,14.439a5.5,5.5,0,1,1,5.5-5.5A5.5,5.5,0,0,1,8.938,14.439Z" transform="translate(324 86)" fill="#646464"/>
      <text id="SEARCH" transform="translate(27 103)" fill="#253528" font-size="16" font-family="Athena-Regular, Athena" letter-spacing="0.01em"><tspan x="0" y="0">SEARCH</tspan></text>
    </g>
  </g>
</svg>
