<svg xmlns="http://www.w3.org/2000/svg" xmlns:xlink="http://www.w3.org/1999/xlink" width="375" height="812" viewBox="0 0 375 812">
  <defs>
    <clipPath id="clip-Plant_-_Notes">
      <rect width="375" height="812"/>
    </clipPath>
  </defs>
  <g id="Plant_-_Notes" data-name="Plant - Notes" clip-path="url(#clip-Plant_-_Notes)">
    <rect width="375" height="812" fill="#fff"/>
    <text id="_11_3_-_Soil_was_dry_today" data-name="11/3 - Soil was dry today" transform="translate(37 709)" fill="#253528" font-size="24" font-family="Garamond-Bold, Garamond" font-weight="700" letter-spacing="0.01em"><tspan x="0" y="0">11/3 - Soil was dry today</tspan></text>
    <text id="Lorem_ipsum_dolor_sit_amet_consectetur_adipiscing_elit_" data-name="Lorem ipsum dolor sit amet, consectetur adipiscing elit…" transform="translate(37 726)" fill="#253528" font-size="20" font-family="Garamond" letter-spacing="0.01em"><tspan x="0" y="17">Lorem ipsum dolor sit amet, </tspan><tspan x="0" y="33">consectetur adipiscing elit…</tspan></text>
    <rect id="Rectangle_66" data-name="Rectangle 66" width="375" height="60" transform="translate(0 752)" fill="#fff"/>
    <g id="Icon_ionic-ios-folder-open" data-name="Icon ionic-ios-folder-open" transform="translate(169.748 764.5)">
      <path id="Path_27" data-name="Path 27" d="M31.5,8.367A1.551,1.551,0,0,0,29.9,6.75H16.235a.52.52,0,0,1-.429-.169L14.224,5l-.014-.014A1.528,1.528,0,0,0,12.994,4.5H6.237A1.673,1.673,0,0,0,4.5,6.117V11.25h27Z" fill="#253528"/>
      <path id="Path_28" data-name="Path 28" d="M4.5,13.219H3.916c-.9,0-1.779.359-1.652,1.709S3.916,29.742,3.916,29.742c.19,1.252.823,1.758,1.758,1.758H30.459c.893,0,1.477-.548,1.617-1.758,0,0,1.561-13,1.659-14.449s-.626-2.074-1.659-2.074H4.5Z" fill="#253528"/>
    </g>
    <path id="Icon_awesome-search" data-name="Icon awesome-search" d="M26.628,23.343l-5.257-5.257a1.265,1.265,0,0,0-.9-.369h-.859a10.963,10.963,0,1,0-1.9,1.9v.859a1.265,1.265,0,0,0,.369.9l5.257,5.257a1.26,1.26,0,0,0,1.788,0l1.492-1.492A1.271,1.271,0,0,0,26.628,23.343ZM10.968,17.717a6.749,6.749,0,1,1,6.749-6.749A6.745,6.745,0,0,1,10.968,17.717Z" transform="translate(98 769)" fill="#646464"/>
    <path id="Icon_open-person" data-name="Icon open-person" d="M13.5,0C9.788,0,6.75,3.78,6.75,8.438s3.038,8.438,6.75,8.438,6.75-3.78,6.75-8.437S17.213,0,13.5,0ZM6.446,16.875A6.757,6.757,0,0,0,0,23.625V27H27V23.625a6.733,6.733,0,0,0-6.446-6.75A9.479,9.479,0,0,1,13.5,20.25,9.479,9.479,0,0,1,6.446,16.875Z" transform="translate(324 769)" fill="#646464"/>
    <path id="Icon_awesome-compass" data-name="Icon awesome-compass" d="M12.269,12.831a1.742,1.742,0,1,0,2.463,0,1.741,1.741,0,0,0-2.463,0ZM13.5.563A13.5,13.5,0,1,0,27,14.063,13.5,13.5,0,0,0,13.5.563Zm6.866,8.059-3.591,7.858a1.739,1.739,0,0,1-.858.858L8.06,20.929A1.076,1.076,0,0,1,6.634,19.5l3.592-7.858a1.739,1.739,0,0,1,.858-.858L18.941,7.2A1.076,1.076,0,0,1,20.366,8.622Z" transform="translate(250 768.438)" fill="#646464"/>
    <path id="Icon_metro-notification" data-name="Icon metro-notification" d="M16.071,4.459a10.969,10.969,0,1,0,7.756,3.213A10.9,10.9,0,0,0,16.071,4.459Zm0-2.531a13.5,13.5,0,1,1-13.5,13.5,13.5,13.5,0,0,1,13.5-13.5ZM14.383,20.491h3.375v3.375H14.383Zm0-13.5h3.375V17.116H14.383Z" transform="translate(21.429 767.072)" fill="#646464"/>
    <text id="Plant_Nickname" data-name="Plant Nickname" transform="translate(41 72)" fill="#253528" font-size="36" font-family="Athena-Regular, Athena" letter-spacing="0.01em"><tspan x="0" y="0">Plant Nickname</tspan></text>
    <path id="Icon_ionic-ios-arrow-back" data-name="Icon ionic-ios-arrow-back" d="M15.321,18l8.937-8.93a1.688,1.688,0,0,0-2.391-2.384L11.742,16.8a1.685,1.685,0,0,0-.049,2.327L21.86,29.32a1.688,1.688,0,0,0,2.391-2.384Z" transform="translate(6.749 42.806)" fill="#253528"/>
    <text id="Site_Name_Location" data-name="Site Name, Location" transform="translate(41 95)" fill="#253528" font-size="18" font-family="Garamond-Italic, Garamond" font-style="italic" letter-spacing="0.01em"><tspan x="0" y="0">Site Name, Location</tspan></text>
    <text id="Notes" transform="translate(36 325)" fill="#253528" font-size="24" font-family="Garamond" letter-spacing="0.01em"><tspan x="0" y="0">Notes</tspan></text>
    <text id="Info" transform="translate(164 325)" fill="#253528" font-size="24" font-family="Garamond" letter-spacing="0.01em"><tspan x="0" y="0">Info</tspan></text>
    <text id="To-Do" transform="translate(275 325)" fill="#253528" font-size="24" font-family="Garamond" letter-spacing="0.01em"><tspan x="0" y="0">To-Do</tspan></text>
    <line id="Line_42" data-name="Line 42" x2="57" transform="translate(36.5 331.5)" fill="none" stroke="#253528" stroke-width="1"/>
    <text id="_11_16_-_Leaves_much_greener_" data-name="11/16 - Leaves much greener!" transform="translate(37 406)" fill="#253528" font-size="24" font-family="Garamond-Bold, Garamond" font-weight="700" letter-spacing="0.01em"><tspan x="0" y="0">11/16 - Leaves much greener!</tspan></text>
    <text id="Lorem_ipsum_dolor_sit_amet_consectetur_adipiscing_elit_2" data-name="Lorem ipsum dolor sit amet, consectetur adipiscing elit…" transform="translate(37 423)" fill="#253528" font-size="20" font-family="Garamond" letter-spacing="0.01em"><tspan x="0" y="17">Lorem ipsum dolor sit amet, </tspan><tspan x="0" y="33">consectetur adipiscing elit…</tspan></text>
    <text id="_11_13_-_Looking_a_bit_brown" data-name="11/13 - Looking a bit brown" transform="translate(37 507)" fill="#253528" font-size="24" font-family="Garamond-Bold, Garamond" font-weight="700" letter-spacing="0.01em"><tspan x="0" y="0">11/13 - Looking a bit brown</tspan></text>
    <text id="Lorem_ipsum_dolor_sit_amet_consectetur_adipiscing_elit_3" data-name="Lorem ipsum dolor sit amet, consectetur adipiscing elit…" transform="translate(37 524)" fill="#253528" font-size="20" font-family="Garamond" letter-spacing="0.01em"><tspan x="0" y="17">Lorem ipsum dolor sit amet, </tspan><tspan x="0" y="33">consectetur adipiscing elit…</tspan></text>
    <text id="_11_6_-_Forgot_to_water_" data-name="11/6 - Forgot to water!" transform="translate(37 608)" fill="#253528" font-size="24" font-family="Garamond-Bold, Garamond" font-weight="700" letter-spacing="0.01em"><tspan x="0" y="0">11/6 - Forgot to water!</tspan></text>
    <text id="Lorem_ipsum_dolor_sit_amet_consectetur_adipiscing_elit_4" data-name="Lorem ipsum dolor sit amet, consectetur adipiscing elit…" transform="translate(37 625)" fill="#253528" font-size="20" font-family="Garamond" letter-spacing="0.01em"><tspan x="0" y="17">Lorem ipsum dolor sit amet, </tspan><tspan x="0" y="33">consectetur adipiscing elit…</tspan></text>
    <g id="Group_4" data-name="Group 4" transform="translate(-18)">
      <g id="Rectangle_67" data-name="Rectangle 67" transform="translate(18 113)" fill="#fff" stroke="#707070" stroke-width="1">
        <rect width="375" height="168" stroke="none"/>
        <rect x="0.5" y="0.5" width="374" height="167" fill="none"/>
      </g>
      <line id="Line_36" data-name="Line 36" y2="168" transform="translate(205.224 113.5)" fill="none" stroke="#707070" stroke-width="1"/>
      <line id="Line_37" data-name="Line 37" x2="187.5" transform="translate(205.5 197.5)" fill="none" stroke="#707070" stroke-width="1"/>
      <line id="Line_38" data-name="Line 38" y2="168" transform="translate(299.112 113.5)" fill="none" stroke="#707070" stroke-width="1"/>
      <g id="Icon_feather-plus-circle" data-name="Icon feather-plus-circle" transform="translate(331.5 224)">
        <path id="Path_29" data-name="Path 29" d="M33,18A15,15,0,1,1,18,3,15,15,0,0,1,33,18Z" transform="translate(-3 -3)" fill="none" stroke="#646464" stroke-linecap="round" stroke-linejoin="round" stroke-width="3"/>
        <path id="Path_30" data-name="Path 30" d="M18,12V24" transform="translate(-3 -3)" fill="none" stroke="#646464" stroke-linecap="round" stroke-linejoin="round" stroke-width="3"/>
        <path id="Path_31" data-name="Path 31" d="M12,18H24" transform="translate(-3 -3)" fill="none" stroke="#646464" stroke-linecap="round" stroke-linejoin="round" stroke-width="3"/>
      </g>
    </g>
  </g>
</svg>
