<?xml version="1.0" encoding="UTF-8"?>
<svg width="375px" height="667px" viewBox="0 0 375 667" version="1.1" xmlns="http://www.w3.org/2000/svg" xmlns:xlink="http://www.w3.org/1999/xlink">
    <!-- Generator: Sketch 53.2 (72643) - https://sketchapp.com -->
    <title>Onboarding 1</title>
    <desc>Created with Sketch.</desc>
    <g id="Onboarding-1" stroke="none" stroke-width="1" fill="none" fill-rule="evenodd">
        <rect fill="#F79544" x="0" y="0" width="375" height="667"></rect>
        <text id="Save-your-favorites" font-family="Arial-BoldMT, Arial" font-size="30" font-weight="bold" fill="#FFFFFF">
            <tspan x="49.6015625" y="129">Save your favorites </tspan>
            <tspan x="65.4438477" y="162">for quick access!</tspan>
        </text>
        <text id="Show-your-“go-to-spo" font-family="ArialMT, Arial" font-size="22" font-weight="normal" fill="#FFFFFF">
            <tspan x="47.3793945" y="414">Show your “go to spot” some </tspan>
            <tspan x="52.2617188" y="439">love and save them for your </tspan>
            <tspan x="131.125488" y="464">next outing!</tspan>
        </text>
        <text id="Skip" font-family="ArialMT, Arial" font-size="22" font-weight="normal" fill="#FFFFFF">
            <tspan x="166.101562" y="574">Skip</tspan>
        </text>
        <g id="Group" transform="translate(143.000000, 616.000000)">
            <circle id="Oval" fill="#FFFFFF" cx="44.5" cy="6.5" r="6.5"></circle>
            <circle id="Oval-Copy-2" fill="#000000" cx="6.5" cy="6.5" r="6.5"></circle>
            <circle id="Oval-Copy" fill="#FFFFFF" cx="82.5" cy="6.5" r="6.5"></circle>
        </g>
        <path d="M161.342155,237.283877 C221.785829,177.340915 252.46906,262.561466 161.342155,333.283877 C76.0315121,279.54068 97.1452074,175.679507 161.342155,237.283877 Z" id="Path" fill="#F60000"></path>
        <path d="M160.826911,236.074035 C222.996441,174.215455 254.555774,262.159428 160.826911,335.141939 C73.0803839,279.681252 94.7969411,172.500953 160.826911,236.074035 Z" id="Path" stroke="#000000" stroke-width="2" stroke-dasharray="14"></path>
        <path d="M161.876012,335.141939 C193.855144,358.047313 227.17378,353.333333 261.83192,321 C313.81913,272.5 361.520709,285.472017 379.55483,309.486008" id="Path-10" stroke="#000000" stroke-width="2" stroke-dasharray="10"></path>
        <polygon id="Path-2" fill="#FFFFFF" points="183 282 239 282 239 357 211 328.825843 183 357"></polygon>
        <path d="M182,282 L240,282 L240,360 L211,330.698877 L182,360 L182,282 Z" id="Path-2" stroke="#000000" stroke-width="2" stroke-dasharray="17"></path>
        <g id="•-iPhone-XS-/-Bars-/-Status-/-Default" fill="#000000">
            <g id="Action" stroke-width="1" fill-rule="evenodd" transform="translate(161.000000, 8.272727)" font-family="SFProText-Semibold, SF Pro Text" font-size="15" font-weight="500" letter-spacing="-0.165">
                <text id="↳-Time">
                    <tspan x="11.2167187" y="14">9:41</tspan>
                </text>
            </g>
            <g id="Container" stroke-width="1" fill-rule="evenodd" transform="translate(56.000000, 7.818182)">
                <g id="Battery" transform="translate(280.000000, 0.000000)">
                    <path d="M3.58943922,1.55999756 C2.60246067,1.55999756 2.25790408,1.62653451 1.90401485,1.81579654 C1.62198703,1.96662666 1.4066291,2.18198459 1.25579898,2.46401241 C1.06653695,2.81790163 1,3.16245823 1,4.14943678 L1,8.47055834 C1,9.45753689 1.06653695,9.80209348 1.25579898,10.1559827 C1.4066291,10.4380105 1.62198703,10.6533685 1.90401485,10.8041986 C2.25790408,10.9934606 2.60246067,11.0599976 3.58943922,11.0599976 L18.4105608,11.0599976 C19.3975393,11.0599976 19.7420959,10.9934606 20.0959852,10.8041986 C20.378013,10.6533685 20.5933709,10.4380105 20.744201,10.1559827 C20.9334631,9.80209348 21,9.45753689 21,8.47055834 L21,4.14943678 C21,3.16245823 20.9334631,2.81790163 20.744201,2.46401241 C20.5933709,2.18198459 20.378013,1.96662666 20.0959852,1.81579654 C19.7420959,1.62653451 19.3975393,1.55999756 18.4105608,1.55999756 L3.58943922,1.55999756 Z M3.58943922,0.559997559 L18.4105608,0.559997559 C19.658687,0.559997559 20.1112877,0.689953412 20.567584,0.933983338 C21.0238803,1.17801326 21.3819843,1.53611726 21.6260142,1.99241355 C21.8700441,2.44870984 22,2.90131056 22,4.14943678 L22,8.47055834 C22,9.71868455 21.8700441,10.1712853 21.6260142,10.6275816 C21.3819843,11.0838779 21.0238803,11.4419819 20.567584,11.6860118 C20.1112877,11.9300417 19.658687,12.0599976 18.4105608,12.0599976 L3.58943922,12.0599976 C2.341313,12.0599976 1.88871228,11.9300417 1.43241599,11.6860118 C0.976119702,11.4419819 0.618015704,11.0838779 0.373985779,10.6275816 C0.129955853,10.1712853 1.52851377e-16,9.71868455 0,8.47055834 L1.93356854e-16,4.14943678 C4.05054768e-17,2.90131056 0.129955853,2.44870984 0.373985779,1.99241355 C0.618015704,1.53611726 0.976119702,1.17801326 1.43241599,0.933983338 C1.88871228,0.689953412 2.341313,0.559997559 3.58943922,0.559997559 Z M23,4.25 C24,4.75895182 24.5,5.42561849 24.5,6.25 C24.5,7.07438151 24,7.74104818 23,8.25 L23,4.25 Z" id="Rectangle" fill-opacity="0.36" fill-rule="nonzero"></path>
                    <path d="M4.05110819,2.47666423 L17.9488918,2.47666423 C18.6621068,2.47666423 18.9207358,2.55092472 19.1814766,2.69037039 C19.4422173,2.82981607 19.6468482,3.03444693 19.7862938,3.29518767 C19.9257395,3.55592842 20,3.81455741 20,4.52777242 L20,8.0922227 C20,8.8054377 19.9257395,9.0640667 19.7862938,9.32480744 C19.6468482,9.58554819 19.4422173,9.79017905 19.1814766,9.92962473 C18.9207358,10.0690704 18.6621068,10.1433309 17.9488918,10.1433309 L4.05110819,10.1433309 C3.33789319,10.1433309 3.07926419,10.0690704 2.81852345,9.92962473 C2.5577827,9.79017905 2.35315184,9.58554819 2.21370617,9.32480744 C2.07426049,9.0640667 2,8.8054377 2,8.0922227 L2,4.52777242 C2,3.81455741 2.07426049,3.55592842 2.21370617,3.29518767 C2.35315184,3.03444693 2.5577827,2.82981607 2.81852345,2.69037039 C3.07926419,2.55092472 3.33789319,2.47666423 4.05110819,2.47666423 Z" id="Rectangle"></path>
                </g>
                <path d="M1.38957089,8 L1.61042911,8 C1.96682803,8 2.19055183,8.05569537 2.3861074,8.16027963 C2.58166296,8.26486389 2.73513611,8.41833704 2.83972037,8.6138926 C2.94430463,8.80944817 3,9.03317197 3,9.38957089 L3,10.6104291 C3,10.966828 2.94430463,11.1905518 2.83972037,11.3861074 C2.73513611,11.581663 2.58166296,11.7351361 2.3861074,11.8397204 C2.19055183,11.9443046 1.96682803,12 1.61042911,12 L1.38957089,12 C1.03317197,12 0.809448166,11.9443046 0.613892602,11.8397204 C0.418337039,11.7351361 0.264863888,11.581663 0.160279629,11.3861074 C0.0556953689,11.1905518 2.04305467e-17,10.966828 -2.3215733e-17,10.6104291 L2.3215733e-17,9.38957089 C-2.04305467e-17,9.03317197 0.0556953689,8.80944817 0.160279629,8.6138926 C0.264863888,8.41833704 0.418337039,8.26486389 0.613892602,8.16027963 C0.809448166,8.05569537 1.03317197,8 1.38957089,8 Z M6.38957089,6 L6.61042911,6 C6.96682803,6 7.19055183,6.05569537 7.3861074,6.16027963 C7.58166296,6.26486389 7.73513611,6.41833704 7.83972037,6.6138926 C7.94430463,6.80944817 8,7.03317197 8,7.38957089 L8,10.6104291 C8,10.966828 7.94430463,11.1905518 7.83972037,11.3861074 C7.73513611,11.581663 7.58166296,11.7351361 7.3861074,11.8397204 C7.19055183,11.9443046 6.96682803,12 6.61042911,12 L6.38957089,12 C6.03317197,12 5.80944817,11.9443046 5.6138926,11.8397204 C5.41833704,11.7351361 5.26486389,11.581663 5.16027963,11.3861074 C5.05569537,11.1905518 5,10.966828 5,10.6104291 L5,7.38957089 C5,7.03317197 5.05569537,6.80944817 5.16027963,6.6138926 C5.26486389,6.41833704 5.41833704,6.26486389 5.6138926,6.16027963 C5.80944817,6.05569537 6.03317197,6 6.38957089,6 Z M10.3895709,3 L10.6104291,3 C10.966828,3 11.1905518,3.05569537 11.3861074,3.16027963 C11.581663,3.26486389 11.7351361,3.41833704 11.8397204,3.6138926 C11.9443046,3.80944817 12,4.03317197 12,4.38957089 L12,10.6104291 C12,10.966828 11.9443046,11.1905518 11.8397204,11.3861074 C11.7351361,11.581663 11.581663,11.7351361 11.3861074,11.8397204 C11.1905518,11.9443046 10.966828,12 10.6104291,12 L10.3895709,12 C10.033172,12 9.80944817,11.9443046 9.6138926,11.8397204 C9.41833704,11.7351361 9.26486389,11.581663 9.16027963,11.3861074 C9.05569537,11.1905518 9,10.966828 9,10.6104291 L9,4.38957089 C9,4.03317197 9.05569537,3.80944817 9.16027963,3.6138926 C9.26486389,3.41833704 9.41833704,3.26486389 9.6138926,3.16027963 C9.80944817,3.05569537 10.033172,3 10.3895709,3 Z M15.3895709,1 L15.6104291,1 C15.966828,1 16.1905518,1.05569537 16.3861074,1.16027963 C16.581663,1.26486389 16.7351361,1.41833704 16.8397204,1.6138926 C16.9443046,1.80944817 17,2.03317197 17,2.38957089 L17,10.6104291 C17,10.966828 16.9443046,11.1905518 16.8397204,11.3861074 C16.7351361,11.581663 16.581663,11.7351361 16.3861074,11.8397204 C16.1905518,11.9443046 15.966828,12 15.6104291,12 L15.3895709,12 C15.033172,12 14.8094482,11.9443046 14.6138926,11.8397204 C14.418337,11.7351361 14.2648639,11.581663 14.1602796,11.3861074 C14.0556954,11.1905518 14,10.966828 14,10.6104291 L14,2.38957089 C14,2.03317197 14.0556954,1.80944817 14.1602796,1.6138926 C14.2648639,1.41833704 14.418337,1.26486389 14.6138926,1.16027963 C14.8094482,1.05569537 15.033172,1 15.3895709,1 Z" id="Combined-Shape"></path>
                <path d="M267.700424,2.29636026 C269.934832,2.29645807 272.083801,3.1550113 273.703172,4.69456934 C273.825112,4.81342838 274.020018,4.81192895 274.140123,4.69120747 L275.305783,3.51479197 C275.366597,3.45356152 275.400498,3.37062318 275.399994,3.284327 C275.39949,3.19803183 275.364621,3.11549481 275.303091,3.0549813 C271.052767,-1.0183271 264.347396,-1.0183271 260.097072,3.0549813 C260.035501,3.11545044 260.000572,3.19796225 260.000007,3.28425742 C259.999432,3.3705536 260.033283,3.45351716 260.094047,3.51479197 L261.26005,4.69120747 C261.380064,4.81211146 261.575131,4.8136119 261.697001,4.69456934 C263.316573,3.15491046 265.465795,2.29635522 267.700424,2.29636026 L267.700424,2.29636026 Z M267.700424,6.12374659 C268.928088,6.12367097 270.11194,6.57998566 271.021951,7.40402385 C271.145031,7.52097306 271.338918,7.51843805 271.458902,7.39830949 L272.623222,6.22189298 C272.68453,6.16018659 272.718552,6.07647685 272.717674,5.98949095 C272.716787,5.90250506 272.681071,5.8195042 272.618513,5.75905724 C269.847347,3.18131227 265.555841,3.18131227 262.784685,5.75905724 C262.722086,5.8195042 262.68637,5.9025464 262.685554,5.98956053 C262.684727,6.07657365 262.71887,6.16027633 262.780309,6.22189298 L263.944295,7.39830949 C264.06427,7.51843805 264.258167,7.52097306 264.381247,7.40402385 C265.290653,6.58053017 266.473567,6.12425481 267.700424,6.12374659 L267.700424,6.12374659 Z M269.937968,8.93134749 C270.000234,8.87023502 270.034528,8.78613606 270.032743,8.69890614 C270.030958,8.61167623 269.993266,8.52904744 269.92855,8.47052847 C268.64232,7.38262854 266.758518,7.38262854 265.472289,8.47052847 C265.407532,8.52900106 265.369769,8.61160363 265.367924,8.69883354 C265.366078,8.78606446 265.400312,8.87018965 265.462538,8.93134749 L267.476902,10.9638589 C267.535941,11.0235929 267.616428,11.0572101 267.700424,11.0572101 C267.78441,11.0572101 267.864897,11.0235929 267.923936,10.9638589 L269.937968,8.93134749 Z" id="Wi-Fi"></path>
            </g>
            <text id="Carrier" font-family="ArialMT, Arial" font-size="15" font-weight="normal">
                <tspan x="6" y="19.8181818">Carrier</tspan>
            </text>
        </g>
        <path d="M-9.68001299,335.141939 C26.8365102,312.564975 64.3551854,312.017662 102.876012,333.5 C124.163526,348.0439 145.55773,346.425328 167.058626,328.644284" id="Path-8" stroke="#000000" stroke-width="2" stroke-dasharray="10"></path>
        <path d="" id="Path-9" stroke="#979797"></path>
    </g>
</svg>