<svg xmlns="http://www.w3.org/2000/svg" xmlns:xlink="http://www.w3.org/1999/xlink" width="375" height="812" viewBox="0 0 375 812">
  <defs>
    <filter id="Icon_awesome-leaf" x="18.5" y="564.953" width="83" height="78.12" filterUnits="userSpaceOnUse">
      <feOffset dx="1" dy="1" input="SourceAlpha"/>
      <feGaussianBlur stdDeviation="6.5" result="blur"/>
      <feFlood flood-color="#8ba888" flood-opacity="0.353"/>
      <feComposite operator="in" in2="blur"/>
      <feComposite in="SourceGraphic"/>
    </filter>
    <clipPath id="clip-Onboarding_1-2">
      <rect width="375" height="812"/>
    </clipPath>
  </defs>
  <g id="Onboarding_1-2" data-name="Onboarding 1-2" clip-path="url(#clip-Onboarding_1-2)">
    <rect width="375" height="812" fill="#fff"/>
    <text id="What_s_your_experience_level_in_caring_for_plants_" data-name="What’s your experience level in caring for plants?" transform="translate(14 77)" fill="#253528" font-size="26" font-family="Garamond-Bold, Garamond" font-weight="700" letter-spacing="0.01em"><tspan x="0.148" y="22">What’s your experience level in </tspan><tspan x="76.467" y="52">caring for plants?</tspan></text>
    <line id="Line_35" data-name="Line 35" y2="496" transform="translate(58.5 176.5)" fill="none" stroke="#49654e" stroke-width="1"/>
    <text id="Skip_" data-name="Skip &gt;" transform="translate(284 767)" fill="#646464" font-size="18" font-family="Garamond" letter-spacing="0.01em"><tspan x="0" y="0">Skip &gt;</tspan></text>
    <text id="No_Experience" data-name="No Experience" transform="translate(85 193)" fill="#253528" font-size="24" font-family="Garamond-Bold, Garamond" font-weight="700" letter-spacing="0.01em"><tspan x="0" y="0">No Experience</tspan></text>
    <text id="Beginner" transform="translate(85 312)" fill="#253528" font-size="24" font-family="Garamond-Bold, Garamond" font-weight="700" letter-spacing="0.01em"><tspan x="0" y="0">Beginner</tspan></text>
    <text id="Experienced" transform="translate(85 430)" fill="#253528" font-size="24" font-family="Garamond-Bold, Garamond" font-weight="700" letter-spacing="0.01em"><tspan x="0" y="0">Experienced</tspan></text>
    <text id="Skilled" transform="translate(85 549)" fill="#253528" font-size="24" font-family="Garamond-Bold, Garamond" font-weight="700" letter-spacing="0.01em"><tspan x="0" y="0">Skilled</tspan></text>
    <text id="Pro" transform="translate(85 667)" fill="#253528" font-size="24" font-family="Garamond-Bold, Garamond" font-weight="700" letter-spacing="0.01em"><tspan x="0" y="0">Pro</tspan></text>
    <g transform="matrix(1, 0, 0, 1, 0, 0)" filter="url(#Icon_awesome-leaf)">
      <path id="Icon_awesome-leaf-2" data-name="Icon awesome-leaf" d="M41.727.741A1.188,1.188,0,0,0,39.565.65,13.1,13.1,0,0,1,28.113,7.334H22A14.672,14.672,0,0,0,7.334,22a15.106,15.106,0,0,0,.115,1.566c4.874-3.491,11.91-6.455,21.887-6.455a1.222,1.222,0,1,1,0,2.445c-19.206,0-27.35,11.773-29.153,16.2a2.448,2.448,0,0,0,4.53,1.856,20.1,20.1,0,0,1,5.493-6.921,14.636,14.636,0,0,0,13.362,5.9C35.562,35.715,44,24.959,44,11.788A27.781,27.781,0,0,0,41.727.741Z" transform="translate(37 583.46)" fill="#8ba888"/>
    </g>
    <g id="Group_43" data-name="Group 43" transform="translate(1 11)">
      <rect id="Rectangle_105" data-name="Rectangle 105" width="335" height="43" transform="translate(19 686)" fill="#49654e"/>
      <text id="Next" transform="translate(187 715)" fill="#fff" font-size="24" font-family="Garamond-Bold, Garamond" font-weight="700" letter-spacing="0.01em"><tspan x="-25.86" y="0">Next</tspan></text>
    </g>
  </g>
</svg>
